<svg xmlns="http://www.w3.org/2000/svg" viewBox="0 0 48 32">
  <rect width="48" height="32" rx="2" fill="#003399"/>
  <g fill="#FFCC00" transform="translate(24,16)">
    <polygon points="0,-11 1.18,-3.82 7.28,-6.73 2.73,0.82 7.28,8.37 1.18,3.82 0,11 -1.18,3.82 -7.28,8.37 -2.73,0.82 -7.28,-6.73 -1.18,-3.82" transform="translate(0,-11) scale(0.33)"/>
    <polygon points="0,-11 1.18,-3.82 7.28,-6.73 2.73,0.82 7.28,8.37 1.18,3.82 0,11 -1.18,3.82 -7.28,8.37 -2.73,0.82 -7.28,-6.73 -1.18,-3.82" transform="rotate(30) translate(0,-11) scale(0.33)"/>
    <polygon points="0,-11 1.18,-3.82 7.28,-6.73 2.73,0.82 7.28,8.37 1.18,3.82 0,11 -1.18,3.82 -7.28,8.37 -2.73,0.82 -7.28,-6.73 -1.18,-3.82" transform="rotate(60) translate(0,-11) scale(0.33)"/>
    <polygon points="0,-11 1.18,-3.82 7.28,-6.73 2.73,0.82 7.28,8.37 1.18,3.82 0,11 -1.18,3.82 -7.28,8.37 -2.73,0.82 -7.28,-6.73 -1.18,-3.82" transform="rotate(90) translate(0,-11) scale(0.33)"/>
    <polygon points="0,-11 1.18,-3.82 7.28,-6.73 2.73,0.82 7.28,8.37 1.18,3.82 0,11 -1.18,3.82 -7.28,8.37 -2.73,0.82 -7.28,-6.73 -1.18,-3.82" transform="rotate(120) translate(0,-11) scale(0.33)"/>
    <polygon points="0,-11 1.18,-3.82 7.28,-6.73 2.73,0.82 7.28,8.37 1.18,3.82 0,11 -1.18,3.82 -7.28,8.37 -2.73,0.82 -7.28,-6.73 -1.18,-3.82" transform="rotate(150) translate(0,-11) scale(0.33)"/>
    <polygon points="0,-11 1.18,-3.82 7.28,-6.73 2.73,0.82 7.28,8.37 1.18,3.82 0,11 -1.18,3.82 -7.28,8.37 -2.73,0.82 -7.28,-6.73 -1.18,-3.82" transform="rotate(180) translate(0,-11) scale(0.33)"/>
    <polygon points="0,-11 1.18,-3.82 7.28,-6.73 2.73,0.82 7.28,8.37 1.18,3.82 0,11 -1.18,3.82 -7.28,8.37 -2.73,0.82 -7.28,-6.73 -1.18,-3.82" transform="rotate(210) translate(0,-11) scale(0.33)"/>
    <polygon points="0,-11 1.18,-3.82 7.28,-6.73 2.73,0.82 7.28,8.37 1.18,3.82 0,11 -1.18,3.82 -7.28,8.37 -2.73,0.82 -7.28,-6.73 -1.18,-3.82" transform="rotate(240) translate(0,-11) scale(0.33)"/>
    <polygon points="0,-11 1.18,-3.82 7.28,-6.73 2.73,0.82 7.28,8.37 1.18,3.82 0,11 -1.18,3.82 -7.28,8.37 -2.73,0.82 -7.28,-6.73 -1.18,-3.82" transform="rotate(270) translate(0,-11) scale(0.33)"/>
    <polygon points="0,-11 1.18,-3.82 7.28,-6.73 2.73,0.82 7.28,8.37 1.18,3.82 0,11 -1.18,3.82 -7.28,8.37 -2.73,0.82 -7.28,-6.73 -1.18,-3.82" transform="rotate(300) translate(0,-11) scale(0.33)"/>
    <polygon points="0,-11 1.18,-3.82 7.28,-6.73 2.73,0.82 7.28,8.37 1.18,3.82 0,11 -1.18,3.82 -7.28,8.37 -2.73,0.82 -7.28,-6.73 -1.18,-3.82" transform="rotate(330) translate(0,-11) scale(0.33)"/>
  </g>
</svg>
